<?xml version="1.0" encoding="utf-8"?>
<!-- Generator: Adobe Illustrator 28.2.0, SVG Export Plug-In . SVG Version: 6.00 Build 0)  -->
<svg version="1.1" id="Layer_1" xmlns="http://www.w3.org/2000/svg" xmlns:xlink="http://www.w3.org/1999/xlink" x="0px" y="0px" width="222px" height="34px"
	 viewBox="0 0 1074.6 163" style="enable-background:new 0 0 1074.6 163;" xml:space="preserve">
<style type="text/css">
	.st0{fill:#2B0F42;}
	.st1{fill-rule:evenodd;clip-rule:evenodd;fill:#2B0F42;}
	.st2{fill-rule:evenodd;clip-rule:evenodd;fill:#573BAE;}
</style>
<g>
	<path class="st0" d="M297.8,78.7c5.5,0,10.5,1.1,14.3,2.8s7.2,4.4,9.4,7.7c2.2,3.3,3.3,6.6,3.3,11s-1.1,8.3-3.3,12.1
		c-2.2,3.9-5.5,6.6-10.5,8.8c-4.4,2.2-10.5,3.3-17.1,3.3h-44v-3.9c3.3,0,5.5-0.6,7.2-1.7c1.7-0.6,2.8-2.2,3.9-3.9
		c0.6-1.7,1.1-4.4,1.1-8.3V55c0-3.9-0.6-6.6-1.1-8.3c-0.6-1.7-1.7-3.3-3.9-3.9c-1.7-0.6-3.9-1.1-7.2-1.7v-3.9h42.9
		c8.8,0,16,1.7,20.9,5.5s7.2,8.8,7.2,15.4c0,3.3-1.1,6.6-2.8,9.9c-1.7,2.8-4.4,5.5-7.7,7.2C307.1,77,302.7,78.1,297.8,78.7l-4.4-0.6
		v0.6H297.8z M275.8,42.4v34.1h13.8c5.5,0,9.9-1.7,12.7-4.4c3.3-2.8,4.4-7.2,4.4-12.7c0-6.6-1.7-11-4.4-13.2
		c-3.3-2.8-8.3-3.9-14.3-3.9h-12.2V42.4z M291.7,119.4c6.1,0,11-1.7,13.8-5c3.3-3.3,5-8.3,5-13.8c0-6.1-1.7-10.5-5-14.3
		c-3.3-3.3-8.3-5-14.3-5h-14.9v30.8c0,2.2,0.6,4.4,1.7,5.5s3.3,1.7,6.1,1.7h7.6V119.4z"/>
	<path class="st0" d="M476.6,120.5c2.8-0.6,5-0.6,6.1-1.1c1.7-0.6,2.2-1.7,2.8-2.2c0.6-1.1,1.1-2.8,1.1-5V44.6c0-2.2-0.6-4.4-1.1-5
		c-0.6-1.1-2.2-1.1-4.4-1.1c-1.1,0-2.8,0-4.4,0.6v-3.9l18.7-5h3.9v82c0,2.2,0,3.9,0.6,5s1.1,1.7,2.2,2.2c1.1,0.6,2.8,1.1,5,1.1v3.9
		h-30.8v-3.9C476.3,120.5,476.6,120.5,476.6,120.5z M501.4,91.9l18.2-14.3c2.2-1.7,3.3-3.3,4.4-4.4c1.1-1.1,1.1-2.2,1.1-3.3
		c0-1.1-0.6-2.2-1.7-2.8c-1.1-0.6-2.8-0.6-5-0.6v-3.9h25.9v3.9c-2.8,0.6-5,1.1-7.2,2.8c-2.2,1.1-5,3.3-7.7,5.5L514.6,87v0.6
		l20.4,23.7c2.2,2.8,4.4,5,6.1,6.1c1.7,1.7,3.9,2.2,6.6,3.3v3.9h-19.3L501.4,91.9z"/>
	<path class="st0" d="M573.4,125.5c-3.9,0-7.2-0.6-11-1.7c-3.3-1.1-6.6-2.8-9.9-5V104h4.4c1.1,5,3.3,8.8,6.6,11.6
		c3.3,2.8,7.2,3.9,11.6,3.9c3.3,0,6.1-0.6,8.3-2.2c2.2-1.7,3.3-3.9,3.3-6.6c0-2.2-0.6-4.4-1.7-6.1c-1.1-1.7-3.3-2.8-6.1-3.9
		l-11.6-3.9c-4.4-1.7-8.3-3.9-10.5-6.6c-2.2-2.8-3.9-6.6-3.9-10.5c0-5.5,2.2-9.9,6.6-13.8c4.4-3.3,9.9-5,16.5-5
		c3.3,0,6.1,0.6,9.4,1.1c3.3,0.6,6.1,1.7,8.8,2.8v13.8h-3.9c-1.1-3.9-2.8-6.6-5.5-8.8c-2.8-2.2-6.1-3.3-9.9-3.3
		c-3.3,0-6.1,0.6-7.7,2.2c-1.7,1.7-2.8,3.3-2.8,6.1c0,2.2,0.6,4.4,1.7,6.1c1.1,1.7,3.3,2.8,6.1,3.9l13.2,5
		c8.8,3.3,12.7,8.8,12.7,17.1c0,6.1-2.2,10.5-6.6,14.3C586.7,123.8,580.6,125.5,573.4,125.5z"/>
	<path class="st0" d="M605.4,120.5c2.8-0.6,5-0.6,6.1-1.1c1.7-0.6,2.2-1.1,2.8-2.2s1.1-2.8,1.1-5V44.6c0-2.8-0.6-4.4-1.1-5
		c-0.6-1.1-2.2-1.1-4.4-1.1c-1.1,0-2.8,0-4.4,0.6v-3.9l18.7-5h3.9V60c0,3.9,0,7.2-0.6,9.9c-0.6,2.8-1.1,5.5-1.7,7.7h0.6
		c1.7-5,4.4-9.4,8.3-12.1c3.9-2.8,8.3-4.4,13.8-4.4c6.1,0,10.5,1.7,13.8,5c3.3,3.3,5,8.8,5,16v28.6c0,2.2,0.6,3.9,1.1,5
		c0.6,1.1,1.7,1.7,2.8,2.2c1.7,0.6,3.3,1.1,6.1,1.1v3.9H647V119c3.3-0.6,5-1.1,6.1-2.2s1.7-2.8,1.7-5V83.7c0-5-1.1-8.3-3.3-10.5
		s-5.5-3.9-8.8-3.9s-6.6,0.6-8.8,2.2c-2.2,1.7-3.9,3.3-5.5,6.6v32.5c0,2.2,0,3.9,0.6,5s1.1,1.7,2.2,2.2c1.1,0.6,2.8,1.1,5,1.1v3.9
		h-30.8L605.4,120.5C604.8,120.5,605.4,120.5,605.4,120.5z"/>
	<path class="st0" d="M752.3,148c2.8-0.6,5-0.6,6.1-1.1c1.7-0.6,2.2-1.1,2.8-2.2c0.6-1.1,1.1-2.8,1.1-5V77c0-2.2-0.6-3.3-1.1-4.4
		c-1.1-1.1-2.2-1.1-4.4-1.1c-1.1,0-2.8,0-5,0v-3.9l18.2-5.5h3.9v7.2c0,1.7-0.6,4.4-1.1,7.7h0.6c1.7-5,4.4-8.8,8.3-12.1
		c3.9-2.8,8.3-4.4,13.2-4.4s8.8,1.1,12.7,3.3s6.6,5.5,8.3,9.9c2.2,4.4,2.8,9.4,2.8,14.9c0,7.2-1.1,13.2-3.9,18.7s-6.1,9.9-11,12.7
		c-5,2.8-9.9,4.4-16,4.4c-4.4,0-8.8-1.1-12.1-3.3v17.1c0,2.2,0.6,3.9,1.1,5c0.6,1.1,2.2,2.2,3.9,2.2c1.7,0.6,4.4,1.1,7.7,1.1v5.5
		h-35.2v-4C752.8,148,752.3,148,752.3,148z M786.9,120.5c5.5,0,9.9-2.2,12.7-7.2c3.3-5,5-11,5-19.3c0-7.2-1.7-12.7-4.4-16.5
		s-6.6-6.1-12.1-6.1c-3.3,0-6.1,0.6-8.3,2.2c-2.2,1.1-4.4,3.3-5.5,5.5V115c1.7,1.7,3.9,3.3,5.5,4.4
		C782.5,120,784.7,120.5,786.9,120.5z"/>
	<path class="st1" d="M883.8,126c-6.1,0-11.6-1.7-16-4.4c-5-2.8-8.3-6.6-11-11.6c-2.8-5-3.9-10.5-3.9-16.5c0-6.1,1.1-11.6,3.9-16.5
		c2.8-5,6.1-8.8,11-11.6c5-2.8,9.9-4.4,16-4.4s11.6,1.7,16,4.4c5,2.8,8.3,6.6,11,11.6s3.9,10.5,3.9,16.5c0,6.1-1.1,11.6-3.9,16.5
		c-2.8,5-6.1,8.8-11,11.6C895.3,124.9,889.8,126,883.8,126z M883.8,120.5c12.1,0,18.2-8.8,18.2-27s-6.1-27-18.2-27
		c-12.1,0-18.2,8.8-18.2,27S871.7,120.5,883.8,120.5z M963.6,61.1c1.7,0,2.8,0,3.9,0.6v12.7h-2.2c-1.1-0.6-3.3-1.1-5.5-1.1
		c-3.9,0-7.2,1.1-9.9,3.3s-3.9,6.1-3.9,11v24.8c0,2.2,0.6,4.4,1.1,5.5c0.6,1.1,2.2,2.2,3.9,2.8c1.7,0.6,4.4,1.1,8.3,1.1v3.3h-34.1
		v-3.3c3.3-0.6,5.5-0.6,6.6-1.1c1.7-0.6,2.2-1.1,3.3-2.2c0.6-1.1,1.1-2.8,1.1-5.5V76.5c0-2.2-0.6-3.9-1.7-4.4
		c-1.1-1.1-2.2-1.7-4.4-1.7h-5.5v-3.3l17.6-5h2.8v9.4c0,5.5,0,10.5,0,13.8h0.6l1.1-6.6c1.1-6.1,3.3-10.5,6.6-13.8
		C955.9,62.7,959.7,61.1,963.6,61.1z M1017.5,66.6c3.9,1.7,7.7,2.2,11.6,2.2h5v-6.1h-22.6c-3.3-1.1-6.6-1.7-9.9-1.7
		c-5,0-9.4,1.1-13.2,2.8c-3.9,1.7-6.6,4.4-8.8,7.7c-2.2,3.3-3.3,7.2-3.3,11s1.1,7.2,2.8,10.5s4.4,5.5,7.7,7.2v1.1
		c-3.3,1.1-6.1,2.8-7.7,5s-2.8,4.4-2.8,7.2c0,2.8,1.1,5.5,2.8,7.7s4.4,3.9,7.2,4.4v0.6c-5,1.1-8.3,3.3-10.5,5.5s-2.8,5-2.8,8.3
		c0,2.8,1.1,5.5,3.3,7.7s5.5,3.9,9.4,5.5c3.9,1.1,8.8,2.2,14.3,2.2c7.7,0,14.3-1.1,19.3-3.3c5-2.2,8.8-5,11-8.8
		c2.2-3.3,3.3-7.2,3.3-11c0-5-1.7-8.8-5-11s-7.7-3.9-14.3-3.9l-20.4-1.1c-2.8,0-5-0.6-6.6-1.7c-1.7-1.1-2.2-2.8-2.2-4.4
		s0.6-2.8,1.7-4.4c1.1-1.1,3.3-1.7,5.5-2.2c2.8,1.1,5.5,1.1,8.8,1.1c5,0,9.4-1.1,12.7-2.8c3.9-1.7,6.6-4.4,8.8-7.7
		c2.2-3.3,3.3-7.2,3.3-11c0-8.3-3.3-13.2-9.9-15.4L1017.5,66.6z M1012,95.2c-2.8,2.8-6.1,4.4-9.9,4.4c-4.4,0-7.7-1.7-9.9-4.4
		c-2.8-2.8-3.9-7.2-3.9-12.7s1.1-9.9,3.9-12.7c2.8-2.8,6.1-4.4,9.9-4.4c4.4,0,7.7,1.7,9.9,4.4c2.8,2.8,3.9,7.2,3.9,12.7
		S1014.2,92.5,1012,95.2z M983.9,135.9c0-5,2.8-8.3,7.7-9.9l20.4,1.1c5,0,8.3,1.1,11,2.8c2.8,1.7,3.9,3.9,3.9,7.7
		c0,3.9-1.7,6.6-5.5,8.8c-3.3,2.2-8.3,3.3-14.9,3.3c-7.2,0-12.7-1.1-17.1-3.3C986.1,143.1,983.9,139.8,983.9,135.9z M829.9,121.6
		c1.7,1.7,3.3,2.2,5.5,2.2s3.9-0.6,5.5-2.2c1.7-1.7,2.2-3.3,2.2-5.5s-0.6-3.9-2.2-5.5c-1.7-1.7-3.3-2.2-5.5-2.2s-3.9,0.6-5.5,2.2
		c-1.7,1.7-2.2,3.3-2.2,5.5S828.8,120.5,829.9,121.6z"/>
	<g>
		<path class="st0" d="M741.3,77c-2.8-5-6.1-8.8-11-11.6c-4.4-2.8-9.9-4.4-16-4.4s-11,1.7-16,4.4c-5,2.8-8.3,6.6-11,11.6
			c-2.8,5-3.9,10.5-3.9,16.5c0,6.1,1.1,11.6,3.9,16.5c2.8,5,6.1,8.8,11,11.6c4.4,2.8,9.9,4.4,16,4.4c5.5,0,11-1.1,16-4.4
			c5-2.8,8.3-6.6,11-11.6c2.8-5,3.9-10.5,3.9-16.5C745.1,87.5,744,82,741.3,77z M714.3,120.5c-9.9,0-18.2-12.1-18.2-27
			s8.3-27,18.2-27s18.2,12.1,18.2,27S724.2,120.5,714.3,120.5z"/>
		<path class="st0" d="M454,65.5c-4.4-2.8-9.9-4.4-16-4.4s-11,1.7-16,4.4c-5,2.8-8.3,6.6-11,11.6c-2.8,5-3.9,10.5-3.9,16.5
			c0,6.1,1.1,11.6,3.9,16.5c2.8,5,6.1,8.8,11,11.6c4.4,2.8,9.9,4.4,16,4.4c5.5,0,11-1.1,16-4.4c5-2.8,8.3-6.6,11-11.6
			c2.8-5,3.9-10.5,3.9-16.5c0-6.1-1.1-11.6-3.9-16.5C462.3,72.1,459,68.2,454,65.5z M438.1,120.5c-9.9,0-18.2-12.1-18.2-27
			s8.3-27,18.2-27c9.9,0,18.2,12.1,18.2,27C456.2,108.4,448,120.5,438.1,120.5z"/>
		<path class="st0" d="M382,65.5c-4.4-2.8-9.9-4.4-16-4.4s-11,1.7-16,4.4c-5,2.8-8.3,6.6-11,11.6c-2.8,5-3.9,10.5-3.9,16.5
			c0,6.1,1.1,11.6,3.9,16.5c2.8,5,6.1,8.8,11,11.6c4.4,2.8,9.9,4.4,16,4.4c5.5,0,11-1.1,16-4.4c5-2.8,8.3-6.6,11-11.6
			c2.8-5,3.9-10.5,3.9-16.5c0-6.1-1.1-11.6-3.9-16.5C390.2,72.1,386.9,68.2,382,65.5z M366,120.5c-9.9,0-18.2-12.1-18.2-27
			s8.3-27,18.2-27c9.9,0,18.2,12.1,18.2,27S375.9,120.5,366,120.5z"/>
	</g>
	<path id="Logomark" class="st2" d="M175.3,130.7c-2.2,2.8-5,5.2-8,7c-0.9,0.5-1.9,1-2.8,1.4c-7.1,2.7-14.7,2.8-22.3,2.8H97.7h-7.8
		H43c-2.4,0-4.4-2-4.4-4.4v-3.6v-9v-11.6v-11.5v-8.7c0-1.8-0.3-3.8,0.7-5.4c0.8-1.3,2.2-2.2,3.7-2.2h93.9c5.9,0,11.8-0.1,17.7,0.4
		c6,0.6,11.7,2.8,16.5,6.3c1.6,1.3,3.1,2.7,4.3,4.3c4,4.7,6.6,10.7,6.7,16.9C182,119.9,179.4,125.9,175.3,130.7 M38.6,60.6V48.8
		V36.6v-9.5v-3.6c0-2.4,2-4.4,4.4-4.4h105c7.4-0.2,14.7,1.7,21.1,5.5c5.9,3.9,10.2,9.8,12.3,16.5c0.6,2.1,1.1,4.3,1,6.6
		c-0.1,6.1-2.7,11.9-6.8,16.5c-2.2,2.8-5,5.1-8.1,6.9c-7,3.3-14.6,4.1-22.3,4.1h-2.9H43c-2.7,0-4.4-2.4-4.4-4.9
		C38.5,67.1,38.6,63.9,38.6,60.6 M191.5,108.6c-0.4-2.8-1.1-5.5-2.2-8.1c-1-2.6-2.3-5.1-3.8-7.4c-1.6-2.3-3.5-4.4-5.5-6.3
		c-1.2-1.1-2.5-2.1-3.8-3.1l-2.2-1.6c-0.7-0.6-1.5-1-2.2-1.6c2.6-1.7,5.2-3.5,7.6-5.5c2.1-1.8,3.9-3.8,5.5-6.1
		c1.6-2.2,2.9-4.6,4-7.2c0.9-2.1,1.6-4.2,2.1-6.4c0.8-4.4,0.9-9.1,0.2-13.5c-0.3-1.9-0.7-3.8-1.3-5.6c-1.2-3.7-3-7.2-5.3-10.3
		c-1-1.3-2-2.5-3.1-3.7c-2.9-3-6.2-5.6-9.8-7.5c-2.4-1.5-4.9-2.6-7.5-3.5c-6.7-1.7-13.6-2.5-20.5-2.3c0,0-121.2,0-131.5,0
		c-1,0-1.8,0.8-1.8,1.8v6.4c0,1.8,1.8,1.9,3.2,1.9h6.1c0,0,3.8,0,5.1,0c2.4,0,4.4,1.9,4.4,4.4c0,0.7,0,2.2,0,2.9c0,0.8,0,1.6,0,2.4
		c0,10.5,0,42.1,0,42.1c0,1.2-0.5,2.4-1.4,3.2c-0.4,0.4-1,0.7-1.5,0.9c-0.7,0.3-1.4,0.3-2.1,0.3c-3.6,0-7.1,0.1-10.7,0.1
		c-0.6,0-1.3,0-1.8,0.1c-0.5,0.2-0.9,0.5-1.2,1c-0.2,0.5-0.2,1-0.2,1.5c0,0.9,0,1.7,0,2.6s-0.1,1.9,0,2.8c0,0.4,0.1,0.8,0.3,1.2
		c0.3,0.7,1.1,0.9,1.8,0.9h4.7h6.8c1.4,0,2.8,0.2,3.9,1.2c1.3,1.2,1.4,2.8,1.4,4.4c0,1.5,0,3,0,4.6c0,2.3,0,4.6,0,6.8v2.1v10.1v5.9
		v11v5.8c0,2.4-2,4.4-4.4,4.4h-7.7c-0.9,0-2.7,0-3.6,0c-0.5,0-1,0-1.3,0c-0.6,0-0.9,0.1-1.3,0.4c-0.3,0.2-0.5,0.6-0.5,1
		c0,0.2,0,0.6,0,0.8v6.1c0,0.4,0.1,0.8,0.4,1.1c0.6,0.5,1.2,0.6,2,0.6h46.4h54.9c11.3,0,22.4-0.1,33.7,0c3.3,0,6.9-0.1,10.2-0.6
		c2.2-0.3,4.4-0.8,6.5-1.5c2.6-0.9,5.1-2,7.4-3.4c3.6-2,6.9-4.6,9.8-7.7c5.4-5.9,9.1-13.2,9.9-21.2
		C191.9,114.6,191.9,111.6,191.5,108.6"/>
	<g>
		<path d="M1037.6,47.2c0-6.8,5.2-11.9,11.7-11.9c6.4,0,11.7,5.1,11.7,11.9s-5.2,11.9-11.7,11.9C1042.7,59.1,1037.6,54,1037.6,47.2z
			 M1057.9,48v-1.7c0-5-3.9-8.5-8.7-8.5c-4.8,0-8.7,3.4-8.7,8.5V48c0,5,3.9,8.5,8.7,8.5C1054,56.5,1057.9,53.1,1057.9,48z
			 M1047.6,53.3h-3.3V41.1h5.7c3,0,4.4,1.7,4.4,3.9c0,1.9-0.9,3.1-2.2,3.8l2.6,4.4h-3.6l-2-3.8h-1.6V53.3z M1049.5,46.9
			c1,0,1.6-0.4,1.6-1.3V45c0-0.9-0.6-1.3-1.6-1.3h-1.9v3.2H1049.5z"/>
	</g>
</g>
</svg>
